<?xml version="1.0" encoding="UTF-8" standalone="no"?>
<!-- Created with Inkscape (http://www.inkscape.org/) -->

<svg
   width="16"
   height="16"
   viewBox="0 0 4.2333332 4.2333333"
   version="1.1"
   id="svg13219"
   inkscape:version="1.2.2 (732a01da63, 2022-12-09)"
   sodipodi:docname="achievements_client_filled.svg"
   xmlns:inkscape="http://www.inkscape.org/namespaces/inkscape"
   xmlns:sodipodi="http://sodipodi.sourceforge.net/DTD/sodipodi-0.dtd"
   xmlns="http://www.w3.org/2000/svg"
   xmlns:svg="http://www.w3.org/2000/svg">
  <sodipodi:namedview
     id="namedview13221"
     pagecolor="#ffffff"
     bordercolor="#666666"
     borderopacity="1.0"
     inkscape:showpageshadow="2"
     inkscape:pageopacity="0.0"
     inkscape:pagecheckerboard="0"
     inkscape:deskcolor="#d1d1d1"
     inkscape:document-units="mm"
     showgrid="true"
     inkscape:zoom="11.930303"
     inkscape:cx="-12.153924"
     inkscape:cy="5.8674117"
     inkscape:window-width="1920"
     inkscape:window-height="1017"
     inkscape:window-x="-8"
     inkscape:window-y="-8"
     inkscape:window-maximized="1"
     inkscape:current-layer="layer1">
    <inkscape:grid
       type="xygrid"
       id="grid13340"
       empspacing="4" />
  </sodipodi:namedview>
  <defs
     id="defs13216" />
  <g
     inkscape:label="Layer 1"
     inkscape:groupmode="layer"
     id="layer1">
    <path
       id="rect15705"
       style="display:inline;fill:none;stroke:#e0e0e0;stroke-width:0.26458333;paint-order:fill markers stroke;stop-color:#000000;stroke-dasharray:none"
       d="M 1.5027507 2.6339478 C 1.4788455 2.6340053 1.4513499 2.6362822 1.4226522 2.6391154 L 0.97151693 3.5780762 L 1.477946 3.4039266 L 1.6872355 3.9217244 L 2.1295858 3.0013672 L 2.7404012 3.9170736 L 2.8618408 3.3718872 L 3.374471 3.4680054 L 2.8726929 2.7155965 C 2.8534055 2.807277 2.8306103 2.8899934 2.7905273 2.9104167 C 2.6995209 2.9567868 2.4035832 2.744577 2.3027018 2.760555 C 2.2018204 2.7765331 1.9855209 3.0700552 1.8846395 3.0540771 C 1.7837581 3.0380991 1.6681711 2.6922034 1.5771647 2.6458333 C 1.560101 2.6371389 1.5343377 2.6338717 1.5027507 2.6339478 z "
       inkscape:label="ribbons" />
    <path
       id="path15639"
       style="display:inline;fill:#e0e0e0;fill-opacity:1;stroke:#e0e0e0;stroke-width:0.43469315;stroke-linejoin:miter;stroke-dasharray:none;stroke-dashoffset:0;paint-order:fill markers stroke;stop-color:#000000"
       inkscape:label="medal"
       d="M 2.4825901 -0.82283959 C 2.3109042 -0.81841729 1.9715852 -0.3651834 1.8110231 -0.33975285 C 1.6452816 -0.31350197 1.1590752 -0.6621488 1.0095576 -0.58596578 C 0.86004002 -0.50978276 0.8556832 0.089200812 0.73702537 0.20785865 C 0.61836753 0.32651649 0.019383976 0.33087328 -0.056799048 0.48039088 C -0.13298206 0.62990847 0.21566475 1.1161149 0.18941387 1.2818564 C 0.163163 1.4475979 -0.31907473 1.802964 -0.29282385 1.9687055 C -0.26657297 2.1344471 0.30171109 2.324349 0.37789411 2.4738665 C 0.45407714 2.6233841 0.27282043 3.1940307 0.39147827 3.3126885 C 0.5101361 3.4313463 1.0807826 3.2500896 1.2303002 3.3262727 C 1.3798178 3.4024557 1.5697197 3.9707397 1.7354612 3.9969906 C 1.9012027 4.0232415 2.2565689 3.5410038 2.4223104 3.5147529 C 2.5880519 3.488502 3.0742583 3.8371488 3.2237759 3.7609658 C 3.3732935 3.6847828 3.3776503 3.0857992 3.4963081 2.9671414 C 3.614966 2.8484835 4.2139495 2.8441268 4.2901325 2.6946092 C 4.3663156 2.5450916 4.0176687 2.0588852 4.0439196 1.8931436 C 4.0701705 1.7274021 4.5524082 1.372036 4.5261573 1.2062945 C 4.4999065 1.040553 3.9316224 0.85065109 3.8554394 0.7011335 C 3.7792564 0.5516159 3.9605131 -0.019030613 3.8418552 -0.13768846 C 3.7231974 -0.25634629 3.1525509 -0.075089605 3.0030333 -0.15127262 C 2.8535157 -0.22745564 2.6636138 -0.7957397 2.4978723 -0.82199058 C 2.4926928 -0.82281092 2.4881283 -0.82298224 2.4825901 -0.82283959 z M 2.1166667 0.28342054 A 1.3040795 1.3040795 0 0 1 3.4207462 1.5875 A 1.3040795 1.3040795 0 0 1 2.1166667 2.8915795 A 1.3040795 1.3040795 0 0 1 0.81258727 1.5875 A 1.3040795 1.3040795 0 0 1 2.1166667 0.28342054 z "
       transform="matrix(0.60866689,0,0,0.60866689,0.8283217,0.6212413)" />
    <path
       sodipodi:type="star"
       style="display:inline;fill:#e0e0e0;fill-opacity:1;stroke:#e0e0e0;stroke-width:0.459211;stroke-linejoin:miter;stroke-dasharray:none;stroke-dashoffset:0;paint-order:fill markers stroke;stop-color:#000000;stroke-opacity:1"
       id="path15637"
       inkscape:flatsided="false"
       sodipodi:sides="5"
       sodipodi:cx="2.1166666"
       sodipodi:cy="1.5875"
       sodipodi:r1="0.95396876"
       sodipodi:r2="0.47698426"
       sodipodi:arg1="0.98279372"
       sodipodi:arg2="1.6111123"
       inkscape:rounded="0"
       inkscape:randomized="0"
       d="M 2.6458332,2.38125 2.0974417,2.0640967 1.5252869,2.3360496 1.6574554,1.7164925 1.2220072,1.2563791 1.8520833,1.1906251 2.1551163,0.63430639 2.4123563,1.2132253 3.0350891,1.3295148 2.5639961,1.7530604 Z"
       inkscape:transform-center-x="0.00053514555"
       inkscape:transform-center-y="-0.051977457"
       transform="matrix(0.57562496,-0.02503624,0.02503624,0.57562496,0.85851545,0.72668874)"
       inkscape:label="star" />
  </g>
</svg>
