<?xml version="1.0" encoding="UTF-8" standalone="no"?>
<!-- Created with Inkscape (http://www.inkscape.org/) -->

<svg
   width="16"
   height="16"
   viewBox="0 0 4.2333332 4.2333333"
   version="1.1"
   id="svg13219"
   inkscape:version="1.2.2 (732a01da63, 2022-12-09)"
   sodipodi:docname="snapshots_client.svg"
   xmlns:inkscape="http://www.inkscape.org/namespaces/inkscape"
   xmlns:sodipodi="http://sodipodi.sourceforge.net/DTD/sodipodi-0.dtd"
   xmlns="http://www.w3.org/2000/svg"
   xmlns:svg="http://www.w3.org/2000/svg">
  <sodipodi:namedview
     id="namedview13221"
     pagecolor="#ffffff"
     bordercolor="#666666"
     borderopacity="1.0"
     inkscape:showpageshadow="2"
     inkscape:pageopacity="0.0"
     inkscape:pagecheckerboard="0"
     inkscape:deskcolor="#d1d1d1"
     inkscape:document-units="mm"
     showgrid="true"
     inkscape:zoom="41.739275"
     inkscape:cx="8.8885109"
     inkscape:cy="9.6312166"
     inkscape:window-width="1920"
     inkscape:window-height="1017"
     inkscape:window-x="-8"
     inkscape:window-y="-8"
     inkscape:window-maximized="1"
     inkscape:current-layer="layer1">
    <inkscape:grid
       type="xygrid"
       id="grid13340"
       empspacing="4" />
  </sodipodi:namedview>
  <defs
     id="defs13216" />
  <g
     inkscape:label="Layer 1"
     inkscape:groupmode="layer"
     id="layer1">
    <path
       id="rect40438"
       style="fill:#e0e0e0;fill-opacity:1;stroke:#e0e0e0;stroke-width:0.264583;stroke-linejoin:miter;stroke-dasharray:none;paint-order:fill markers stroke;stop-color:#000000"
       d="m 0.79375,1.3229167 c -0.14657886,0 -0.26458333,0.1180044 -0.26458333,0.2645833 V 3.175 c 0,0.1465789 0.11800447,0.2645833 0.26458333,0.2645833 h 2.6458333 c 0.1465789,0 0.2645834,-0.1180044 0.2645834,-0.2645833 V 1.5875 c 0,-0.1465789 -0.1180045,-0.2645833 -0.2645834,-0.2645833 z m 0,0 C 0.9398139,1.3230649 1.0581851,1.4414361 1.0583333,1.5875 1.0581851,1.7335639 0.9398139,1.8519351 0.79375,1.8520833 0.6476861,1.8519351 0.52931488,1.7335639 0.52916669,1.5875 0.52931488,1.4414361 0.6476861,1.3230649 0.79375,1.3229167 Z M 2.1166667,1.5875 c 0.4383755,0 0.79375,0.3553744 0.79375,0.79375 0,0.4383756 -0.3553745,0.79375 -0.79375,0.79375 -0.4383756,0 -0.79375,-0.3553744 -0.79375,-0.79375 0,-0.4383756 0.3553744,-0.79375 0.79375,-0.79375 z"
       sodipodi:nodetypes="ssssssssscccccsssss" />
    <path
       id="rect40440"
       style="fill:none;stroke:#e0e0e0;stroke-width:0.264583;paint-order:fill markers stroke;stop-color:#000000"
       d="m 1.5874999,1.8520833 c -0.1465791,0 -0.2645833,-0.1180042 -0.2645833,-0.2645834 l 10e-8,-0.2645832 C 1.5875001,1.0583334 1.7055042,0.79375 1.8520833,0.79375 H 2.38125 c 0.1465791,0 0.2645833,0.2645833 0.5291667,0.5291667 l -10e-8,0.2645832 c 0,0.1465792 -0.1180042,0.2645834 -0.2645833,0.2645834"
       sodipodi:nodetypes="cscsscsc" />
    <path
       id="rect40619"
       style="fill:#e0e0e0;stroke-width:0.264583;paint-order:fill markers stroke;stop-color:#000000"
       d="M 0.69949467,0.99775867 H 1.2286607 V 1.1300502 H 0.69949467 Z"
       sodipodi:nodetypes="ccccc" />
  </g>
</svg>
